<mxfile host="app.diagrams.net" modified="2023-08-19T07:58:16.780Z" agent="Mozilla/5.0 (X11; Ubuntu; Linux x86_64; rv:109.0) Gecko/20100101 Firefox/116.0" etag="qZnaaqwo8Ock64Ebd5zE" version="21.6.8" type="github">
  <diagram name="Página-1" id="PT8iDLhcYljWOaQJN8Hs">
    <mxGraphModel dx="1434" dy="822" grid="1" gridSize="10" guides="1" tooltips="1" connect="1" arrows="1" fold="1" page="1" pageScale="1" pageWidth="827" pageHeight="1169" math="0" shadow="0">
      <root>
        <mxCell id="0" />
        <mxCell id="1" parent="0" />
        <mxCell id="gFYqJmrAvyof7589NjqG-82" style="edgeStyle=orthogonalEdgeStyle;rounded=0;orthogonalLoop=1;jettySize=auto;html=1;curved=1;exitX=0.5;exitY=1;exitDx=0;exitDy=0;entryX=0.5;entryY=0;entryDx=0;entryDy=0;" parent="1" source="gFYqJmrAvyof7589NjqG-78" target="gFYqJmrAvyof7589NjqG-79" edge="1">
          <mxGeometry relative="1" as="geometry">
            <mxPoint x="170" y="510" as="targetPoint" />
          </mxGeometry>
        </mxCell>
        <mxCell id="gFYqJmrAvyof7589NjqG-85" style="edgeStyle=orthogonalEdgeStyle;rounded=0;orthogonalLoop=1;jettySize=auto;html=1;curved=1;entryX=0.5;entryY=0;entryDx=0;entryDy=0;exitX=0.5;exitY=1;exitDx=0;exitDy=0;" parent="1" source="gFYqJmrAvyof7589NjqG-78" target="gFYqJmrAvyof7589NjqG-80" edge="1">
          <mxGeometry relative="1" as="geometry">
            <mxPoint x="630" y="440" as="targetPoint" />
          </mxGeometry>
        </mxCell>
        <mxCell id="gFYqJmrAvyof7589NjqG-88" style="edgeStyle=orthogonalEdgeStyle;rounded=0;orthogonalLoop=1;jettySize=auto;html=1;curved=1;entryX=0.5;entryY=0;entryDx=0;entryDy=0;" parent="1" source="gFYqJmrAvyof7589NjqG-78" target="gFYqJmrAvyof7589NjqG-64" edge="1">
          <mxGeometry relative="1" as="geometry" />
        </mxCell>
        <mxCell id="gFYqJmrAvyof7589NjqG-78" value="&lt;h1 align=&quot;center&quot;&gt;&lt;font color=&quot;#004c99&quot;&gt;Afinal, container ou VM?&lt;/font&gt;&lt;/h1&gt;&lt;div align=&quot;justify&quot;&gt;&lt;font color=&quot;#2e2e2e&quot;&gt;É comum quem já viu maquinas virtuais e agora se depara com containers se perguntar: Mas afinal qual dos dois usar? &lt;br&gt;Simples, use os dois, cada um foi feito como solução para cenários diferentes &lt;/font&gt;&lt;br&gt;&lt;/div&gt;" style="text;html=1;strokeColor=none;fillColor=none;spacing=5;spacingTop=-20;whiteSpace=wrap;overflow=hidden;rounded=0;" parent="1" vertex="1">
          <mxGeometry x="180" y="70" width="500" height="160" as="geometry" />
        </mxCell>
        <mxCell id="gFYqJmrAvyof7589NjqG-79" value="&lt;div align=&quot;justify&quot;&gt;&lt;font color=&quot;#2e2e2e&quot;&gt;Neste exemplo temos uma arquitetura clássica de virtualização de maquina:&lt;/font&gt;&lt;br&gt;&lt;font color=&quot;#2e2e2e&quot;&gt;Um hypervisor faz a comunicação diretamente com o hardware físico do servidor, e por sua vez gerencia os recursos de hardware pra diferentes maquinas virtuais (abstração vamos chamar assim). Cada VM é isolada uma da outra, cada uma com seu próprio sistema operacional&lt;/font&gt;&lt;br&gt;&lt;/div&gt;" style="text;html=1;strokeColor=none;fillColor=none;align=center;verticalAlign=middle;whiteSpace=wrap;rounded=0;" parent="1" vertex="1">
          <mxGeometry x="10" y="370" width="332" height="150" as="geometry" />
        </mxCell>
        <UserObject label="&lt;div align=&quot;justify&quot;&gt;&lt;font color=&quot;#2e2e2e&quot;&gt;Aqui temos um cenário parecido, a ideia é utilizar a mesma logica de abstração de virtualização de sistema operacionais porém, limitando isso a um escopo mais lógico.&lt;/font&gt;&lt;/div&gt;&lt;div align=&quot;justify&quot;&gt;&lt;font color=&quot;#2e2e2e&quot;&gt;A ideia não é exatamente isolar recurso de hardware, mas isolar pacotes, diretórios, bibliotecas e tudo que é necessário para que uma aplicação especifica consiga rodar de forma independente, assim temos a vantagem de ter a mesma aplicação diretamente no sistema operacional, porém com 2 versões diferentes delas, sem interferir uma com a outra (essa é apenas uma vantagem, existem outras)&lt;br&gt;&lt;/font&gt;&lt;/div&gt;" tags="" id="gFYqJmrAvyof7589NjqG-80">
          <mxCell style="text;html=1;strokeColor=none;fillColor=none;align=center;verticalAlign=middle;whiteSpace=wrap;rounded=0;" parent="1" vertex="1">
            <mxGeometry x="480" y="470" width="332" height="150" as="geometry" />
          </mxCell>
        </UserObject>
        <mxCell id="gFYqJmrAvyof7589NjqG-81" value="&lt;div align=&quot;justify&quot;&gt;E aqui temos a união dos dois conceitos de abstração:&lt;br&gt;A virtualização de sistemas operacionais completos e a &quot;virtualização de aplicações&quot; que é o container.&lt;br&gt;Na pratica essa é a arquitetura que você vai ver em quase todo ambiente de produção&lt;/div&gt;" style="text;html=1;strokeColor=none;fillColor=none;align=left;verticalAlign=middle;whiteSpace=wrap;rounded=0;" parent="1" vertex="1">
          <mxGeometry x="280" y="1050" width="332" height="100" as="geometry" />
        </mxCell>
        <object label="" id="gFYqJmrAvyof7589NjqG-83">
          <mxCell style="group;glass=0;rounded=0;shadow=0;" parent="1" vertex="1" connectable="0">
            <mxGeometry x="560" y="650" width="220" height="200" as="geometry" />
          </mxCell>
        </object>
        <mxCell id="gFYqJmrAvyof7589NjqG-9" value="" style="rounded=1;whiteSpace=wrap;html=1;fillColor=none;strokeWidth=2;strokeColor=#2E2E2E;" parent="gFYqJmrAvyof7589NjqG-83" vertex="1">
          <mxGeometry y="160" width="220" height="40" as="geometry" />
        </mxCell>
        <mxCell id="gFYqJmrAvyof7589NjqG-10" value="&lt;font color=&quot;#2e2e2e&quot;&gt;Servidor físico&lt;br&gt;&lt;/font&gt;" style="text;html=1;strokeColor=none;fillColor=none;align=center;verticalAlign=middle;whiteSpace=wrap;rounded=0;" parent="gFYqJmrAvyof7589NjqG-83" vertex="1">
          <mxGeometry y="170" width="220" height="20" as="geometry" />
        </mxCell>
        <UserObject label="" tags="" id="gFYqJmrAvyof7589NjqG-42">
          <mxCell style="rounded=1;whiteSpace=wrap;html=1;fillColor=none;strokeWidth=1;strokeColor=#2E2E2E;" parent="gFYqJmrAvyof7589NjqG-83" vertex="1">
            <mxGeometry x="17" width="190" height="150" as="geometry" />
          </mxCell>
        </UserObject>
        <mxCell id="gFYqJmrAvyof7589NjqG-44" value="" style="rounded=1;whiteSpace=wrap;html=1;fillColor=none;strokeWidth=1;strokeColor=#0066CC;" parent="gFYqJmrAvyof7589NjqG-83" vertex="1">
          <mxGeometry x="27" y="100" width="167" height="30" as="geometry" />
        </mxCell>
        <mxCell id="gFYqJmrAvyof7589NjqG-45" value="&lt;font color=&quot;#0066cc&quot;&gt;Kernel&lt;/font&gt;" style="text;html=1;strokeColor=none;fillColor=none;align=center;verticalAlign=middle;whiteSpace=wrap;rounded=0;" parent="gFYqJmrAvyof7589NjqG-83" vertex="1">
          <mxGeometry x="90" y="105" width="40" height="20" as="geometry" />
        </mxCell>
        <mxCell id="gFYqJmrAvyof7589NjqG-47" value="" style="rounded=1;whiteSpace=wrap;html=1;fillColor=none;strokeWidth=2;strokeColor=#009900;dashed=1;" parent="gFYqJmrAvyof7589NjqG-83" vertex="1">
          <mxGeometry x="37" y="65" width="150" height="40" as="geometry" />
        </mxCell>
        <mxCell id="gFYqJmrAvyof7589NjqG-48" value="&lt;font color=&quot;#cc0066&quot;&gt;Container&lt;/font&gt;" style="rounded=1;whiteSpace=wrap;html=1;fillColor=none;strokeWidth=1;strokeColor=#CC0066;" parent="gFYqJmrAvyof7589NjqG-83" vertex="1">
          <mxGeometry x="48" y="40" width="59" height="35" as="geometry" />
        </mxCell>
        <mxCell id="gFYqJmrAvyof7589NjqG-51" value="&lt;font color=&quot;#009900&quot;&gt;Docker&lt;/font&gt;" style="text;html=1;strokeColor=none;fillColor=none;align=center;verticalAlign=middle;whiteSpace=wrap;rounded=0;" parent="gFYqJmrAvyof7589NjqG-83" vertex="1">
          <mxGeometry x="37" y="75" width="150" height="20" as="geometry" />
        </mxCell>
        <mxCell id="gFYqJmrAvyof7589NjqG-68" value="&lt;font color=&quot;#990000&quot;&gt;APP&lt;/font&gt;" style="rounded=1;whiteSpace=wrap;html=1;fillColor=none;strokeWidth=1;strokeColor=#990000;dashed=1;dashPattern=8 8;" parent="gFYqJmrAvyof7589NjqG-83" vertex="1">
          <mxGeometry x="62.5" y="20" width="30" height="20" as="geometry" />
        </mxCell>
        <mxCell id="gFYqJmrAvyof7589NjqG-71" value="&lt;font color=&quot;#cc0066&quot;&gt;Container&lt;/font&gt;" style="rounded=1;whiteSpace=wrap;html=1;fillColor=none;strokeWidth=1;strokeColor=#CC0066;" parent="gFYqJmrAvyof7589NjqG-83" vertex="1">
          <mxGeometry x="118" y="40" width="59" height="35" as="geometry" />
        </mxCell>
        <mxCell id="gFYqJmrAvyof7589NjqG-72" value="&lt;font color=&quot;#990000&quot;&gt;APP&lt;/font&gt;" style="rounded=1;whiteSpace=wrap;html=1;fillColor=none;strokeWidth=1;strokeColor=#990000;dashed=1;dashPattern=8 8;" parent="gFYqJmrAvyof7589NjqG-83" vertex="1">
          <mxGeometry x="132.5" y="20" width="30" height="20" as="geometry" />
        </mxCell>
        <mxCell id="gFYqJmrAvyof7589NjqG-43" value="&lt;font color=&quot;#2e2e2e&quot;&gt;S.O&lt;/font&gt;" style="text;html=1;strokeColor=none;fillColor=none;align=center;verticalAlign=middle;whiteSpace=wrap;rounded=0;" parent="gFYqJmrAvyof7589NjqG-83" vertex="1">
          <mxGeometry x="90" y="130" width="40" height="20" as="geometry" />
        </mxCell>
        <mxCell id="gFYqJmrAvyof7589NjqG-84" value="" style="group" parent="1" vertex="1" connectable="0">
          <mxGeometry x="60" y="520" width="220" height="230" as="geometry" />
        </mxCell>
        <mxCell id="gFYqJmrAvyof7589NjqG-26" value="" style="rounded=1;whiteSpace=wrap;html=1;fillColor=none;strokeWidth=1;strokeColor=#0066CC;" parent="gFYqJmrAvyof7589NjqG-84" vertex="1">
          <mxGeometry x="35" y="20" width="50" height="110" as="geometry" />
        </mxCell>
        <mxCell id="gFYqJmrAvyof7589NjqG-27" value="&lt;font color=&quot;#0066cc&quot;&gt;VM&lt;/font&gt;" style="text;html=1;strokeColor=none;fillColor=none;align=center;verticalAlign=middle;whiteSpace=wrap;rounded=0;" parent="gFYqJmrAvyof7589NjqG-84" vertex="1">
          <mxGeometry x="40" width="40" height="20" as="geometry" />
        </mxCell>
        <mxCell id="gFYqJmrAvyof7589NjqG-28" value="" style="rounded=1;whiteSpace=wrap;html=1;fillColor=none;strokeWidth=2;strokeColor=#2E2E2E;" parent="gFYqJmrAvyof7589NjqG-84" vertex="1">
          <mxGeometry y="190" width="220" height="40" as="geometry" />
        </mxCell>
        <mxCell id="gFYqJmrAvyof7589NjqG-29" value="&lt;font color=&quot;#2e2e2e&quot;&gt;Servidor físico&lt;br&gt;&lt;/font&gt;" style="text;html=1;strokeColor=none;fillColor=none;align=center;verticalAlign=middle;whiteSpace=wrap;rounded=0;" parent="gFYqJmrAvyof7589NjqG-84" vertex="1">
          <mxGeometry y="200" width="220" height="20" as="geometry" />
        </mxCell>
        <mxCell id="gFYqJmrAvyof7589NjqG-30" value="" style="rounded=1;whiteSpace=wrap;html=1;fillColor=none;strokeWidth=2;strokeColor=#009900;dashed=1;" parent="gFYqJmrAvyof7589NjqG-84" vertex="1">
          <mxGeometry x="25" y="140" width="170" height="40" as="geometry" />
        </mxCell>
        <mxCell id="gFYqJmrAvyof7589NjqG-31" value="&lt;font color=&quot;#009900&quot;&gt;Hypervisor&lt;/font&gt;" style="text;html=1;strokeColor=none;fillColor=none;align=center;verticalAlign=middle;whiteSpace=wrap;rounded=0;" parent="gFYqJmrAvyof7589NjqG-84" vertex="1">
          <mxGeometry x="35" y="150" width="150" height="20" as="geometry" />
        </mxCell>
        <mxCell id="gFYqJmrAvyof7589NjqG-32" value="" style="rounded=1;whiteSpace=wrap;html=1;fillColor=none;strokeWidth=1;strokeColor=#2E2E2E;" parent="gFYqJmrAvyof7589NjqG-84" vertex="1">
          <mxGeometry x="40" y="60" width="40" height="60" as="geometry" />
        </mxCell>
        <mxCell id="gFYqJmrAvyof7589NjqG-33" value="&lt;font color=&quot;#2e2e2e&quot;&gt;S.O&lt;/font&gt;" style="text;html=1;strokeColor=none;fillColor=none;align=center;verticalAlign=middle;whiteSpace=wrap;rounded=0;" parent="gFYqJmrAvyof7589NjqG-84" vertex="1">
          <mxGeometry x="40" y="90" width="40" height="20" as="geometry" />
        </mxCell>
        <mxCell id="gFYqJmrAvyof7589NjqG-34" value="&lt;font color=&quot;#990000&quot;&gt;APP&lt;/font&gt;" style="rounded=1;whiteSpace=wrap;html=1;fillColor=none;strokeWidth=1;strokeColor=#990000;dashed=1;dashPattern=8 8;" parent="gFYqJmrAvyof7589NjqG-84" vertex="1">
          <mxGeometry x="45" y="70" width="30" height="20" as="geometry" />
        </mxCell>
        <mxCell id="gFYqJmrAvyof7589NjqG-35" value="" style="rounded=1;whiteSpace=wrap;html=1;fillColor=none;strokeWidth=1;strokeColor=#0066CC;" parent="gFYqJmrAvyof7589NjqG-84" vertex="1">
          <mxGeometry x="135" y="20" width="50" height="110" as="geometry" />
        </mxCell>
        <mxCell id="gFYqJmrAvyof7589NjqG-36" value="" style="rounded=1;whiteSpace=wrap;html=1;fillColor=none;strokeWidth=1;strokeColor=#2E2E2E;" parent="gFYqJmrAvyof7589NjqG-84" vertex="1">
          <mxGeometry x="140" y="60" width="40" height="60" as="geometry" />
        </mxCell>
        <mxCell id="gFYqJmrAvyof7589NjqG-37" value="&lt;font color=&quot;#2e2e2e&quot;&gt;S.O&lt;/font&gt;" style="text;html=1;strokeColor=none;fillColor=none;align=center;verticalAlign=middle;whiteSpace=wrap;rounded=0;" parent="gFYqJmrAvyof7589NjqG-84" vertex="1">
          <mxGeometry x="140" y="90" width="40" height="20" as="geometry" />
        </mxCell>
        <mxCell id="gFYqJmrAvyof7589NjqG-38" value="&lt;font color=&quot;#990000&quot;&gt;APP&lt;/font&gt;" style="rounded=1;whiteSpace=wrap;html=1;fillColor=none;strokeWidth=1;strokeColor=#990000;dashed=1;dashPattern=8 8;" parent="gFYqJmrAvyof7589NjqG-84" vertex="1">
          <mxGeometry x="145" y="70" width="30" height="20" as="geometry" />
        </mxCell>
        <mxCell id="gFYqJmrAvyof7589NjqG-39" value="&lt;font color=&quot;#0066cc&quot;&gt;VM&lt;/font&gt;" style="text;html=1;strokeColor=none;fillColor=none;align=center;verticalAlign=middle;whiteSpace=wrap;rounded=0;" parent="gFYqJmrAvyof7589NjqG-84" vertex="1">
          <mxGeometry x="140" width="40" height="20" as="geometry" />
        </mxCell>
        <UserObject label="" tags="" id="gFYqJmrAvyof7589NjqG-86">
          <mxCell style="group;movable=1;resizable=1;rotatable=1;deletable=1;editable=1;locked=0;connectable=1;glass=0;" parent="1" vertex="1" connectable="0">
            <mxGeometry x="320" y="760" width="220" height="285" as="geometry" />
          </mxCell>
        </UserObject>
        <mxCell id="gFYqJmrAvyof7589NjqG-70" value="" style="rounded=1;whiteSpace=wrap;html=1;fillColor=none;strokeWidth=2;strokeColor=#009900;dashed=1;movable=1;resizable=1;rotatable=1;deletable=1;editable=1;locked=0;connectable=1;" parent="gFYqJmrAvyof7589NjqG-86" vertex="1">
          <mxGeometry x="28.5" y="100" width="156.5" height="40" as="geometry" />
        </mxCell>
        <mxCell id="gFYqJmrAvyof7589NjqG-52" value="" style="rounded=1;whiteSpace=wrap;html=1;fillColor=none;strokeWidth=2;strokeColor=#2E2E2E;movable=1;resizable=1;rotatable=1;deletable=1;editable=1;locked=0;connectable=1;" parent="gFYqJmrAvyof7589NjqG-86" vertex="1">
          <mxGeometry y="245" width="220" height="40" as="geometry" />
        </mxCell>
        <mxCell id="gFYqJmrAvyof7589NjqG-53" value="&lt;font color=&quot;#2e2e2e&quot;&gt;Servidor físico&lt;br&gt;&lt;/font&gt;" style="text;html=1;strokeColor=none;fillColor=none;align=center;verticalAlign=middle;whiteSpace=wrap;rounded=0;movable=1;resizable=1;rotatable=1;deletable=1;editable=1;locked=0;connectable=1;" parent="gFYqJmrAvyof7589NjqG-86" vertex="1">
          <mxGeometry y="255" width="220" height="20" as="geometry" />
        </mxCell>
        <mxCell id="gFYqJmrAvyof7589NjqG-62" value="" style="rounded=1;whiteSpace=wrap;html=1;fillColor=none;strokeWidth=2;strokeColor=#009900;dashed=1;movable=1;resizable=1;rotatable=1;deletable=1;editable=1;locked=0;connectable=1;" parent="gFYqJmrAvyof7589NjqG-86" vertex="1">
          <mxGeometry x="10" y="195" width="200" height="40" as="geometry" />
        </mxCell>
        <mxCell id="gFYqJmrAvyof7589NjqG-63" value="&lt;font color=&quot;#009900&quot;&gt;Hypervisor&lt;/font&gt;" style="text;html=1;strokeColor=none;fillColor=none;align=center;verticalAlign=middle;whiteSpace=wrap;rounded=0;movable=1;resizable=1;rotatable=1;deletable=1;editable=1;locked=0;connectable=1;" parent="gFYqJmrAvyof7589NjqG-86" vertex="1">
          <mxGeometry x="35" y="205" width="150" height="20" as="geometry" />
        </mxCell>
        <mxCell id="gFYqJmrAvyof7589NjqG-64" value="" style="rounded=1;whiteSpace=wrap;html=1;fillColor=none;strokeWidth=1;strokeColor=#0066CC;movable=1;resizable=1;rotatable=1;deletable=1;editable=1;locked=0;connectable=1;" parent="gFYqJmrAvyof7589NjqG-86" vertex="1">
          <mxGeometry x="11" width="199" height="190" as="geometry" />
        </mxCell>
        <mxCell id="gFYqJmrAvyof7589NjqG-66" value="" style="rounded=1;whiteSpace=wrap;html=1;fillColor=none;strokeWidth=1;strokeColor=#2E2E2E;movable=1;resizable=1;rotatable=1;deletable=1;editable=1;locked=0;connectable=1;" parent="gFYqJmrAvyof7589NjqG-86" vertex="1">
          <mxGeometry x="18.5" y="120" width="184" height="60" as="geometry" />
        </mxCell>
        <mxCell id="gFYqJmrAvyof7589NjqG-67" value="&lt;font color=&quot;#2e2e2e&quot;&gt;S.O&lt;/font&gt;" style="text;html=1;strokeColor=none;fillColor=none;align=center;verticalAlign=middle;whiteSpace=wrap;rounded=0;movable=1;resizable=1;rotatable=1;deletable=1;editable=1;locked=0;connectable=1;" parent="gFYqJmrAvyof7589NjqG-86" vertex="1">
          <mxGeometry x="90.5" y="160" width="40" height="20" as="geometry" />
        </mxCell>
        <mxCell id="gFYqJmrAvyof7589NjqG-69" value="&lt;font color=&quot;#009900&quot;&gt;Docker&lt;/font&gt;" style="text;html=1;strokeColor=none;fillColor=none;align=center;verticalAlign=middle;whiteSpace=wrap;rounded=0;movable=1;resizable=1;rotatable=1;deletable=1;editable=1;locked=0;connectable=1;" parent="gFYqJmrAvyof7589NjqG-86" vertex="1">
          <mxGeometry x="35.5" y="120" width="150" height="20" as="geometry" />
        </mxCell>
        <mxCell id="gFYqJmrAvyof7589NjqG-73" value="&lt;font color=&quot;#cc0066&quot;&gt;Container&lt;/font&gt;" style="rounded=1;whiteSpace=wrap;html=1;fillColor=none;strokeWidth=1;strokeColor=#CC0066;movable=1;resizable=1;rotatable=1;deletable=1;editable=1;locked=0;connectable=1;" parent="gFYqJmrAvyof7589NjqG-86" vertex="1">
          <mxGeometry x="30" y="75" width="60" height="35" as="geometry" />
        </mxCell>
        <mxCell id="gFYqJmrAvyof7589NjqG-74" value="&lt;font color=&quot;#990000&quot;&gt;APP&lt;/font&gt;" style="rounded=1;whiteSpace=wrap;html=1;fillColor=none;strokeWidth=1;strokeColor=#990000;dashed=1;dashPattern=8 8;movable=1;resizable=1;rotatable=1;deletable=1;editable=1;locked=0;connectable=1;" parent="gFYqJmrAvyof7589NjqG-86" vertex="1">
          <mxGeometry x="45.5" y="55" width="30" height="20" as="geometry" />
        </mxCell>
        <mxCell id="gFYqJmrAvyof7589NjqG-76" value="&lt;font color=&quot;#cc0066&quot;&gt;Container&lt;/font&gt;" style="rounded=1;whiteSpace=wrap;html=1;fillColor=none;strokeWidth=1;strokeColor=#CC0066;movable=1;resizable=1;rotatable=1;deletable=1;editable=1;locked=0;connectable=1;" parent="gFYqJmrAvyof7589NjqG-86" vertex="1">
          <mxGeometry x="123" y="75" width="60" height="35" as="geometry" />
        </mxCell>
        <mxCell id="gFYqJmrAvyof7589NjqG-77" value="&lt;font color=&quot;#990000&quot;&gt;APP&lt;/font&gt;" style="rounded=1;whiteSpace=wrap;html=1;fillColor=none;strokeWidth=1;strokeColor=#990000;dashed=1;dashPattern=8 8;movable=1;resizable=1;rotatable=1;deletable=1;editable=1;locked=0;connectable=1;" parent="gFYqJmrAvyof7589NjqG-86" vertex="1">
          <mxGeometry x="138.5" y="55" width="30" height="20" as="geometry" />
        </mxCell>
        <mxCell id="gFYqJmrAvyof7589NjqG-90" value="" style="rounded=1;whiteSpace=wrap;html=1;fillColor=none;strokeWidth=1;strokeColor=#0066CC;" parent="gFYqJmrAvyof7589NjqG-86" vertex="1">
          <mxGeometry x="55.5" y="135" width="110" height="25" as="geometry" />
        </mxCell>
        <mxCell id="gFYqJmrAvyof7589NjqG-91" value="&lt;font color=&quot;#0066cc&quot;&gt;Kernel&lt;/font&gt;" style="text;html=1;strokeColor=none;fillColor=none;align=center;verticalAlign=middle;whiteSpace=wrap;rounded=0;" parent="gFYqJmrAvyof7589NjqG-86" vertex="1">
          <mxGeometry x="90.5" y="140" width="40" height="20" as="geometry" />
        </mxCell>
        <mxCell id="vozkf6tA9N1DTtl57gn6-1" value="&lt;font size=&quot;1&quot; color=&quot;#ff0000&quot;&gt;&lt;b style=&quot;font-size: 20px;&quot;&gt;NOTA&lt;/b&gt;&lt;/font&gt;" style="text;html=1;strokeColor=none;fillColor=none;align=left;verticalAlign=middle;whiteSpace=wrap;rounded=0;" parent="1" vertex="1">
          <mxGeometry x="30" y="885" width="50" height="30" as="geometry" />
        </mxCell>
        <mxCell id="vozkf6tA9N1DTtl57gn6-2" value="&lt;div align=&quot;justify&quot;&gt;&lt;font color=&quot;#2e2e2e&quot;&gt;&lt;b&gt;Embora pareçam similares olhando esses desenhos, maquinas virtuais e containers são bem diferentes em sua arquitetura base. Mas não vamos entrar em detalhes ainda, estamos somente na superfície.&lt;/b&gt;&lt;/font&gt;&lt;/div&gt;" style="text;html=1;strokeColor=none;fillColor=none;align=left;verticalAlign=middle;whiteSpace=wrap;rounded=1;dashed=1;strokeWidth=2;perimeterSpacing=0;" parent="1" vertex="1">
          <mxGeometry x="20" y="915" width="270" height="95" as="geometry" />
        </mxCell>
        <mxCell id="vozkf6tA9N1DTtl57gn6-4" value="" style="rounded=1;whiteSpace=wrap;html=1;fillColor=none;strokeColor=#FF0000;strokeWidth=2;dashed=1;" parent="1" vertex="1">
          <mxGeometry x="10" y="870" width="290" height="150" as="geometry" />
        </mxCell>
        <UserObject label="" tags="" id="vozkf6tA9N1DTtl57gn6-5">
          <mxCell style="shape=flexArrow;endArrow=classic;html=1;rounded=0;endWidth=25;endSize=6.03;" parent="1" edge="1">
            <mxGeometry width="50" height="50" relative="1" as="geometry">
              <mxPoint x="413" y="1150" as="sourcePoint" />
              <mxPoint x="413" y="1240" as="targetPoint" />
            </mxGeometry>
          </mxCell>
        </UserObject>
      </root>
    </mxGraphModel>
  </diagram>
</mxfile>
